<?xml version="1.0" standalone="no"?>
<!DOCTYPE svg PUBLIC "-//W3C//DTD SVG 20010904//EN"
 "http://www.w3.org/TR/2001/REC-SVG-20010904/DTD/svg10.dtd">
<svg version="1.0" xmlns="http://www.w3.org/2000/svg"
 width="325.000000pt" height="325.000000pt" viewBox="0 0 325.000000 325.000000"
 preserveAspectRatio="xMidYMid meet">
<metadata>
Created by potrace 1.11, written by Peter Selinger 2001-2013
</metadata>
<g transform="translate(0.000000,325.000000) scale(0.100000,-0.100000)"
fill="#000000" stroke="none">
<path d="M0 1625 l0 -1625 1625 0 1625 0 0 1625 0 1625 -1625 0 -1625 0 0
-1625z m1714 719 c13 -34 6 -85 -11 -90 -112 -34 -131 -68 -114 -196 6 -45 11
-135 11 -200 0 -129 -11 -167 -65 -217 -25 -23 -25 -25 -8 -35 26 -14 38 -28
57 -63 19 -39 22 -201 5 -351 -16 -136 0 -164 104 -186 24 -6 27 -11 27 -50 0
-63 -12 -69 -104 -51 -97 19 -130 36 -162 84 l-25 39 3 241 c3 238 3 240 -20
263 -12 12 -39 27 -60 33 -36 10 -37 11 -37 60 0 45 3 50 25 56 53 13 67 21
84 50 16 28 17 51 11 262 l-7 232 24 34 c30 45 78 72 152 87 85 17 103 16 110
-2z m1055 5 c88 -16 140 -47 169 -101 25 -46 26 -64 6 -350 -4 -48 -4 -102 0
-121 9 -46 45 -83 95 -97 l42 -11 -3 -47 c-3 -45 -5 -47 -42 -57 -50 -14 -84
-48 -92 -92 -4 -19 -4 -76 0 -127 20 -275 20 -292 -3 -338 -26 -55 -76 -85
-173 -105 -80 -16 -92 -11 -103 44 -7 40 10 63 48 63 11 0 36 12 55 26 l34 27
-6 116 c-3 64 -9 153 -12 199 -8 105 7 163 54 209 l34 34 -34 34 c-47 48 -62
105 -54 218 3 51 9 142 11 202 7 129 2 139 -77 166 -51 17 -53 19 -52 53 1 32
18 66 32 66 3 0 35 -5 71 -11z m-2219 -254 c3 -143 9 -230 15 -230 6 0 46 18
90 40 78 38 83 39 185 39 87 1 110 -3 135 -18 57 -37 85 -70 107 -125 21 -52
22 -75 26 -338 l4 -282 54 -7 c58 -7 70 -22 62 -75 l-3 -24 -190 0 -190 0 0
45 c0 44 0 44 42 53 28 5 47 16 54 29 8 15 10 96 7 267 -4 231 -6 248 -26 282
-13 21 -38 43 -62 54 -36 16 -46 17 -97 5 -70 -15 -153 -53 -188 -86 l-25 -23
2 -258 3 -258 47 -10 c59 -13 70 -24 66 -66 l-3 -34 -179 -3 c-192 -3 -206 1
-206 47 0 39 10 48 63 56 l47 7 0 504 0 504 -25 16 c-14 9 -40 20 -58 23 -27
6 -32 12 -35 40 -6 57 6 62 147 59 l126 -3 5 -230z m1815 -79 c80 -14 120 -26
163 -48 21 -11 22 -17 22 -140 l0 -129 -87 3 -87 3 -7 30 c-4 17 -10 42 -13
57 -11 47 -31 58 -104 58 -88 0 -128 -25 -167 -105 -17 -33 -20 -61 -20 -160
0 -110 2 -124 25 -164 14 -24 42 -58 63 -75 37 -30 43 -31 130 -31 62 1 108 6
141 18 37 13 52 15 62 6 8 -6 14 -15 14 -20 0 -5 11 -32 24 -60 l25 -50 -32
-20 c-65 -40 -157 -59 -283 -59 -93 0 -131 4 -172 19 -152 56 -223 143 -258
320 -32 163 14 335 115 435 107 105 264 144 446 112z"/>
</g>
</svg>
