<svg id="Layer_1" data-name="Layer 1" xmlns="http://www.w3.org/2000/svg" viewBox="0 0 2336 300"><defs><style>.cls-1{fill:#ffc609;}.cls-2{fill:#fff;}</style></defs><title>hc-summit-logo</title><polygon class="cls-1" points="1903.33 143.43 1790.07 210.76 2016.6 210.76 1903.33 143.43"/><path class="cls-2" d="M163.45,210.76V198.41l10.78-1.35c2.92-.22,4-1.35,4-4.49V140.27c0-16.61-2.92-29.86-18.86-29.86-13.47,0-26.72,7.63-35.47,14.59v67.58c0,3.59.22,4,3.59,4.49l12.57,1.57v12.12H88.69V198.41l11.23-1.35c3.14-.45,3.59-1.12,3.59-4.49V62.14c0-2.47-.67-4-2.92-4.71L87.12,53.16l2-11.9h34.57v66.68c10.33-7.41,23.35-14.82,40.41-14.82,24,0,34.57,15.49,34.57,40.86v58.6c0,3.59.22,4,3.59,4.49l12.8,1.57v12.12Z"/><path class="cls-2" d="M302.26,210.76l-2-14.59-.67-.22c-10.78,10.1-23.35,17.51-40.63,17.51-28.06,0-31.66-19.31-31.66-30.76,0-22.45,13.92-33,40.86-35.25L298.45,145v-11.9c0-16.39-3.14-24.47-22.67-24.47-13.69,0-23.57.45-23.8,17.29l-19.31-2c0-27.61,25.59-30.76,43.33-30.76,31.88,0,42.66,9,42.66,40v59.49c0,3.59.22,4,3.59,4.49l11.45,1.57v12.12Zm-3.82-51.64-25.37,2.25c-19.31,1.8-24.7,7.41-24.7,19.08,0,12.12,5.16,17.06,15.71,17.06,13.25,0,27.39-10.78,34.35-17.29Z"/><path class="cls-2" d="M433.24,204c-8.53,5.61-23.57,9.43-38.39,9.43-38.39,0-54.78-23.57-54.78-59,0-42.66,24.7-61.29,58.82-61.29,16.39,0,29.19,4.49,34.12,7v29.86l-15-.67-2.69-14.82c-.22-1.57-.67-2.47-2.69-3.14-3.14-1.12-9-2-15.27-2-20,0-35.92,11.67-35.92,43.78,0,31.43,14.82,43.55,36.59,43.55,11.23,0,22.45-3.59,28.74-7.41Z"/><path class="cls-2" d="M516,210.76V198.64l14.14-1.8-28.06-46.47-18.86,21.1v21.1c0,3.59.22,4,3.59,4.49l13.47,1.57v12.12h-55V198.41l13.92-1.35c3.14-.22,3.59-1.12,3.59-4.49V62.14c0-2.47-.67-4-2.92-4.71l-13.47-4.27,2-11.9h34.8v108l47.59-53.88h24.92v12.12L543,110.18c-2.69.45-3.59,1.12-5.61,3.37l-20.43,22.9L551,193c1.8,2.69,2.69,2.92,6.51,3.59l11.67,2v12.12Z"/><path class="cls-2" d="M632.69,244.21c-35.47-.67-48.27-7.63-48.27-31.21,0-12.57,3.14-25.37,3.14-41.53,0-12.8-5.39-15.94-15.71-16.61V137.12c10.33-.67,15.71-3.82,15.71-16.61,0-16.16-3.14-29.19-3.14-41.76,0-23.57,12.8-30.53,48.27-31.21l2.24,18C623.26,68.2,619,70.45,619,81.67c0,11.67,3.59,25.14,3.59,38.84,0,15-5.61,22-14.14,25.59,8.53,3.59,14.14,10.33,14.14,25.37,0,13.69-3.59,26.72-3.59,38.61,0,11.23,4.27,13.47,15.94,16.16Z"/><path class="cls-1" d="M739.46,202.45c-10.33,6.29-26.27,11-42.66,11C656.17,213.45,638,188.08,638,154c0-42,25.59-62.41,61.51-62.41,17.51,0,33,4.94,40,9.43v35.25l-24-1.12-2.69-14.82c-.22-1.57-.67-2.92-2.69-3.59a39,39,0,0,0-11.45-1.57c-13.47,0-24.92,9.2-24.92,35.47,0,29.19,13,37.49,29,37.49,11.22,0,21.33-3.59,28.06-6.51Z"/><path class="cls-1" d="M770.15,258.35V240.17l17.51-2c2.92-.22,4.27-1.8,5.61-4.94l9.65-21.33L760.05,118c-.9-2.69-2-3.14-4.71-3.82l-9.2-2.25,3.59-18.18h59.49V112l-14.14,1.8L820,173h1.57l23.8-59.27L830.77,112l2.92-18.18h50.06V112l-7.18,1.35c-2.69.45-4.49,1.12-5.61,3.82L821.57,237.92l23.35,2.47v18Z"/><path class="cls-1" d="M890.94,258.35v-18l9-1.35c3.14-.45,4-1.35,4-4.71V121c0-2.47-.67-4-2.92-4.71L889.14,112l2.47-18.18h39.51l2,11.45,1.12.45c10.78-8.76,25.37-14.14,38.17-14.14,25.14,0,43.1,15.72,43.1,57.47,0,26.94-9.21,64.43-46.25,64.43A50.23,50.23,0,0,1,937.19,202v32.1c0,3.59.22,4.27,3.59,4.49l23.35,2v17.74Zm46.7-79.7c4.94,4.27,12.8,8.53,21.1,8.53,15,0,21.33-14.37,21.33-36.37,0-23.12-7.86-32.55-19.08-32.55-9.43,0-18.41,4.71-23.35,8.08Z"/><path class="cls-1" d="M1022.88,210.76V192.58l10.1-1.35c3.14-.45,3.59-1.12,3.59-4.49V121c0-2.47-.67-4-2.92-4.71L1021.53,112,1024,93.79h39.51l2.69,18h1.35c7.41-11.45,17.29-20.21,31.66-20.21,5.16,0,15.49.9,19.53,2v40.86l-26.94-.9-2.25-11.9c-.45-2-1.12-2.47-2.92-2.47-5.84,0-12.8,4.94-16.16,7.86v59.49c0,3.59.22,4.27,3.59,4.49l22.23,1.8v18Z"/><path class="cls-1" d="M1215.82,210.76l-1.8-12.12-1.12-.22c-9.2,7-20.88,15-40,15-23.57,0-32.55-13.47-32.55-39.51V119.16c0-3.59-.22-4-3.59-4.71L1126,112.2l2.25-18.41h46V168.1c0,13.69,2.25,18.86,11.9,18.86,9.88,0,18-5.61,23.12-10.33v-57.7c0-3.59-.22-3.82-3.59-4.49l-9.65-2.25,2.47-18.41h44.68V187c0,2.92.22,4,3.14,4.27l11.23,1.57v18Z"/><path class="cls-1" d="M1334.09,129l-2.25-11.67c-.22-1.8-.67-2.69-2.25-3.14a53.49,53.49,0,0,0-14.37-1.8c-11.22,0-17.51,4.27-17.51,11.45,0,9.2,12.35,11.23,26,14.37,17.74,4,37.72,10.33,37.72,36.59,0,27.39-22.23,38.61-50.74,38.61-20.43,0-40.41-5.39-44.45-8.08V172.82l24,1.8,2.25,12.8c.22,2,.67,2.92,2.69,3.37a58.34,58.34,0,0,0,17.29,2.25c11.9,0,18.63-3.37,18.63-11.67,0-9-9-11.67-20.43-13.69-18.86-3.37-43.55-7.41-43.55-36.82,0-27.84,23.8-39.29,49.61-39.29,17.74,0,35,4,41.31,6.51v32.55Z"/><path class="cls-2" d="M1366.13,226.25c11.67-2.69,15.94-4.94,15.94-16.16,0-11.9-3.59-24.92-3.59-38.61,0-15,5.61-21.78,14.14-25.37-8.53-3.59-14.14-10.55-14.14-25.59,0-13.69,3.59-27.17,3.59-38.84,0-11.23-4.27-13.47-15.94-16.16l2.25-18c35.47.67,48.27,7.63,48.27,31.21,0,12.57-3.14,25.59-3.14,41.76,0,12.8,5.39,15.94,15.72,16.61v17.74c-10.33.67-15.72,3.82-15.72,16.61,0,16.16,3.14,29,3.14,41.53,0,23.57-12.8,30.53-48.27,31.21Z"/><path class="cls-2" d="M1539.67,127.47,1537,113.55c-.22-1.57-.45-2.47-2.25-2.92a58.33,58.33,0,0,0-17.51-2.47c-16.39,0-23.8,7.18-23.8,16.84,0,12.8,13.47,15.49,28.06,19.31,17.51,4.49,36.59,9.88,36.59,34.12,0,26-21.78,35-45.57,35-18.18,0-36.59-5.16-40.63-7.63V176l15,.9,2.69,15.49c.22,1.57.67,2.47,2.69,3.14a63.31,63.31,0,0,0,22,3.59c15,0,24.7-5.61,24.7-17.74,0-13.47-12.8-16.61-27.17-20-17.51-4-37.27-8.53-37.27-33.23,0-25.59,21.55-35,44.68-35,16.17,0,30.76,4.27,35.47,6.29v29Z"/><path class="cls-2" d="M1662.43,210.76l-1.8-15.27-.45-.22c-10.33,8.76-23.57,18.18-43.33,18.18-24.7,0-32.33-15-32.33-40.86v-57c0-3.59-.22-4.49-3.59-5.16l-11.67-2.92,1.8-12.12H1605v72.51c0,19.53,3.37,29,17.51,29,15.27,0,28.29-10.55,36.14-19.53v-62c0-3.59-.22-4.27-3.59-4.94l-11.22-2.92,1.8-12.12H1679v97c0,3.37.67,4.49,3.14,4.71l11.9,1.57v12.12Z"/><path class="cls-2" d="M2111.62,210.76V198.41l14.82-1.35c3.14-.22,3.59-1.12,3.59-4.49V116.24c0-2.47-.67-4-2.92-4.71l-12.8-4.27,2-11.9h34.12v97.21c0,3.59.22,4,3.59,4.49l14.37,1.57v12.12Zm25.59-140.31c-9.21,0-14.59-5.16-14.59-14.37,0-9,5.39-14.14,14.59-14.14s14.37,5.16,14.37,14.14C2151.58,65.28,2146.42,70.45,2137.21,70.45Z"/><path class="cls-2" d="M2249.13,206.49c-9,3.59-19.76,7-31.21,7-21.55,0-31.21-10.1-31.21-30.31v-70c0-1.35,0-2.25-1.8-2.25h-16.39v-13c17.51-2.25,22.45-9.2,25.37-32.1h13.25V93.12c0,1.35,0,2.24,1.8,2.24h33v15.49h-34.8v66.23c0,14.14,3.37,19.53,16.17,19.53,7,0,14.82-2,20.88-4.49Z"/><path class="cls-2" d="M2087.42,197.06c-3.37-.45-3.59-.9-3.59-4.49v-57.7c0-26-7.63-41.76-33.23-41.76-16.61,0-29.86,7.18-39.74,14.37-5.61-10.55-16.84-14.37-27.61-14.37-16.84,0-27.84,6.51-39.74,15.71l-.67-.22L1941,95.37h-29.41l-2,11.9,12.8,4.27c2.25.67,2.92,2.24,2.92,4.71v19.09l20.43,12.15v-22.7c8.53-7,20.43-13.92,32.1-13.92,16.16,0,17.06,14.59,17.06,27.39V176.7l20.43,12.15v-53.3a127.22,127.22,0,0,0-.67-13.69c7-4.94,17.51-11,29.63-11,15.94,0,19.08,13.47,19.08,27.61v54.11c0,3.14-1.12,4.27-4,4.49l-10.78,1.35v12.35h51.64V198.64Z"/><path class="cls-2" d="M1743,192.58v-67.8c8.53-7,20.43-13.92,32.1-13.92,16.16,0,17.06,14.59,17.06,27.39v50.08l20.43-12.15V135.55a127.22,127.22,0,0,0-.67-13.69c7-4.94,17.51-11,29.63-11,15.94,0,19.08,13.47,19.08,27.61v9.15l20.43-12.15v-.6c0-26-7.63-41.76-33.23-41.76-16.61,0-29.86,7.18-39.74,14.37-5.61-10.55-16.84-14.37-27.61-14.37-16.84,0-27.84,6.51-39.74,15.71l-.67-.22-1.8-13.25H1708.9l-2,11.9,12.8,4.27c2.25.67,2.92,2.24,2.92,4.71v76.33c0,3.37-.45,4-3.59,4.49l-11.23,1.35v12.35h51V198.64l-12.12-1.57C1743.25,196.62,1743,196.17,1743,192.58Z"/></svg>